- 
http://www.Speed.Cd 
       
http://www.Speed.Cd      fast  and The Hottest Private Tracker on the net

(((--Submit for invite!!--)))

Please Seed back to make the speed Faster!!!

------------------nfo--------------------------
-                                                                                                     
       
     
     
       
       
     
     
                                         
                                         
                EXVID                    
                                         
         
                                         
         Filled the Archives             
                                         
         
                                         
                With:                    
                                         
         
                                         
                                    
     E240                           
                                    
     SP               (C) 2009      
                                         
     
     
     
                                                                                  
                                                                                   
                 Shanghai.2010.PROPER.DVDRip.XviD-EXViD                             
                                                                                   
                                                                                  
     
                                                                                               
EXViD aims to iNTERNAL those releases which have been lost in the archives.
EXViD aims to PRE non-internal releases which have poor sources and are likely skipped by others.
 
http://www.imdb.com/title/tt1092634/
Subtitles: EN, NL
Date: 2011.08

Director: Mikael Hfstrm

Genres: Drama | Mystery | Romance | Thriller

Plot:
An American man returns to a corrupt, Japanese-occupied Shanghai four months before Pearl
Harbor and discovers his friend has been killed. While he unravels the mysteries of the death,
he falls in love and discovers a much larger secret that his own government is hiding.

Cast:
John Cusack 	 ... 	 Paul Soames
Li Gong 	 ... 	 Anna Lan-Ting (as Gong Li)
Yun-Fat Chow 	 ... 	 Anthony Lan-Ting (as Chow Yun-Fat)
David Morse 	 ... 	 Richard Astor
Ken Watanabe 	 ... 	 Tanaka
Franka Potente 	 ... 	 Leni
Jeffrey Dean Morgan 	 ... 	 Conner
Hugh Bonneville 	 ... 	 Ben Sanger
Yuan On 	 ... 	 Yuan
Hon Ping Tang 	 ... 	 Chen
Benedict Wong 	 ... 	 Juso Kita
Christopher Buchholz 	 ... 	 Karl
Ronan Vibert 	 ... 	 Mikey
Nicholas Rowe 	 ... 	 Ralph
Michael Culkin 	 ... 	 Billy

Stats:
Format                           : AVI
Format/Info                      : Audio Video Interleave
File size                        : 701 MiB
Duration                         : 1h 40mn
Overall bit rate                 : 979 Kbps
Writing application              : Nandub v1.0rc2
Writing library                  : Nandub build 1852/release

Video
ID                               : 0
Format                           : MPEG-4 Visual
Format profile                   : Advanced Simple@L5
Format settings, BVOP            : No
Format settings, QPel            : No
Format settings, GMC             : No warppoints
Format settings, Matrix          : Default (H.263)
Codec ID                         : XVID
Codec ID/Hint                    : XviD
Duration                         : 1h 40mn
Bit rate                         : 844 Kbps
Width                            : 640 pixels
Height                           : 272 pixels
Display aspect ratio             : 2.35:1
Frame rate                       : 25.000 fps
Color space                      : YUV
Chroma subsampling               : 4:2:0
Bit depth                        : 8 bits
Scan type                        : Progressive
Compression mode                 : Lossy
Bits/(Pixel*Frame)               : 0.194
Stream size                      : 604 MiB (86%)
Writing library                  : XviD 64

Audio
ID                               : 1
Format                           : MPEG Audio
Format version                   : Version 1
Format profile                   : Layer 3
Mode                             : Joint stereo
Mode extension                   : MS Stereo
Codec ID                         : 55
Codec ID/Hint                    : MP3
Duration                         : 1h 40mn
Bit rate mode                    : Variable
Bit rate                         : 122 Kbps
Nominal bit rate                 : 128 Kbps
Channel(s)                       : 2 channels
Sampling rate                    : 48.0 KHz
Compression mode                 : Lossy
Stream size                      : 87.1 MiB (12%)
Alignment                        : Aligned on interleaves
Interleave, duration             : 24 ms (0.60 video frame)
Interleave, preload duration     : 145 ms
Writing library                  : LAME3.98r
Encoding settings                : -m j -V 4 -q 3 -lowpass 17 --abr 128




Release notes:
Shanghai.2010.DVDRip.XviD-VoMiT = Mandarin dubbed audio instead of original. Sample included.

enjoy!

Looking for:
75TB+ Archives
DUTCH/FLEMiSH Archives
                                                                                                    
Greets: CRBS EPiSODE FiCO FLS iLS KLASSiGER LiPSYNC MADE NODLABS RUNNER SPRiNTER      
   

                                                                    ASCII DONE BY XX^NFO 2oo9